<?plantuml 1.2026.2beta3?><svg xmlns="http://www.w3.org/2000/svg" xmlns:xlink="http://www.w3.org/1999/xlink" contentStyleType="text/css" data-diagram-type="DESCRIPTION" height="427px" preserveAspectRatio="none" style="width:321px;height:427px;background:#FFFFFF;" version="1.1" viewBox="0 0 321 427" width="321px" zoomAndPan="magnify"><defs/><g><!--cluster guard--><g class="cluster" data-qualified-name="guard" data-source-line="6" id="ent0003"><rect fill="#F5F3FF" height="209.28" rx="4" ry="4" style="stroke:#181818;stroke-width:1;" width="166" x="30.82" y="90.29"/><text fill="#000000" font-family="sans-serif" font-size="14" font-weight="bold" lengthAdjust="spacing" textLength="105.1914" x="61.2243" y="105.2851">archguardian</text></g><!--entity parse--><g class="entity" data-qualified-name="guard.parse" data-source-line="7" id="ent0004"><rect fill="#FFFFFF" height="36.2969" rx="4" ry="4" style="stroke:#181818;stroke-width:0.5;" width="133.415" x="47.12" y="125.29"/><text fill="#000000" font-family="sans-serif" font-size="14" lengthAdjust="spacing" textLength="113.415" x="57.12" y="148.2851">Parse diff + AST</text></g><!--entity analyze--><g class="entity" data-qualified-name="guard.analyze" data-source-line="8" id="ent0005"><rect fill="#FFFFFF" height="36.2969" rx="4" ry="4" style="stroke:#181818;stroke-width:0.5;" width="75.166" x="95.24" y="247.27"/><text fill="#000000" font-family="sans-serif" font-size="14" lengthAdjust="spacing" textLength="55.166" x="105.24" y="270.2651">Analyze</text></g><!--entity commit--><g class="entity" data-qualified-name="commit" data-source-line="5" id="ent0002"><rect fill="#E0E7FF" height="36.2969" rx="4" ry="4" style="stroke:#181818;stroke-width:0.5;" width="104.9707" x="61.34" y="7"/><text fill="#000000" font-family="sans-serif" font-size="14" font-weight="bold" lengthAdjust="spacing" textLength="84.9707" x="71.34" y="29.9951">git commit</text></g><!--entity ok--><g class="entity" data-qualified-name="ok" data-source-line="10" id="ent0006"><rect fill="#DCFCE7" height="36.2969" rx="4" ry="4" style="stroke:#181818;stroke-width:0.5;" width="99.6455" x="7" y="385.25"/><text fill="#000000" font-family="sans-serif" font-size="14" lengthAdjust="spacing" textLength="79.6455" x="17" y="408.2451">Commit OK</text></g><!--entity blocked--><g class="entity" data-qualified-name="blocked" data-source-line="11" id="ent0007"><rect fill="#FEE2E2" height="36.2969" rx="4" ry="4" style="stroke:#181818;stroke-width:0.5;" width="134.0918" x="141.78" y="385.25"/><text fill="#000000" font-family="sans-serif" font-size="14" lengthAdjust="spacing" textLength="114.0918" x="151.78" y="408.2451">Commit blocked</text></g><g class="entity" data-qualified-name="GMN12" data-source-line="19" id="ent0013"><path d="M212.89,226.59 L212.89,261.42 L170.69,265.42 L212.89,269.42 L212.89,304.2541 A4,4 0 0 0 216.89,308.2541 L310.7655,308.2541 A4,4 0 0 0 314.7655,304.2541 L314.7655,232.59 L304.7655,222.59 L216.89,222.59 A4,4 0 0 0 212.89,226.59" fill="#FEFFDD" style="stroke:#181818;stroke-width:0.5;"/><path d="M304.7655,222.59 L304.7655,230.59 A2,2 0 0 0 306.7655,232.59 L314.7655,232.59 L304.7655,222.59" fill="#FEFFDD" style="stroke:#181818;stroke-width:0.5;"/><text fill="#000000" font-family="sans-serif" font-size="13" lengthAdjust="spacing" textLength="53.3838" x="218.89" y="239.6569">Security</text><text fill="#000000" font-family="sans-serif" font-size="13" lengthAdjust="spacing" textLength="58.2905" x="218.89" y="254.7897">AI smells</text><text fill="#000000" font-family="sans-serif" font-size="13" lengthAdjust="spacing" textLength="80.8755" x="218.89" y="269.9225">Conventions</text><text fill="#000000" font-family="sans-serif" font-size="13" lengthAdjust="spacing" textLength="68.707" x="218.89" y="285.0553">Duplicates</text><text fill="#000000" font-family="sans-serif" font-size="13" lengthAdjust="spacing" textLength="80.1582" x="218.89" y="300.1881">Architecture</text></g><!--link commit to parse--><g class="link" data-entity-1="ent0002" data-entity-2="ent0004" data-link-type="dependency" data-source-line="13" id="lnk8"><path d="M113.82,43.55 C113.82,65.48 113.82,96.93 113.82,118.91" fill="none" id="commit-to-parse" style="stroke:#181818;stroke-width:1;"/><polygon fill="#181818" points="113.82,124.91,117.82,115.91,113.82,119.91,109.82,115.91,113.82,124.91" style="stroke:#181818;stroke-width:1;"/></g><!--link parse to analyze--><g class="link" data-entity-1="ent0004" data-entity-2="ent0005" data-link-type="dependency" data-source-line="14" id="lnk9"><path d="M116.59,161.89 C120.19,184.63 125.5097,218.2741 129.1197,241.0241" fill="none" id="parse-to-analyze" style="stroke:#181818;stroke-width:1;"/><polygon fill="#181818" points="130.06,246.95,132.6001,237.4343,129.2764,242.0118,124.6989,238.6881,130.06,246.95" style="stroke:#181818;stroke-width:1;"/></g><!--link analyze to ok--><g class="link" data-entity-1="ent0005" data-entity-2="ent0006" data-link-type="dependency" data-source-line="15" id="lnk10"><path d="M123.04,283.92 C108.45,310.03 84.0672,353.6625 69.4972,379.7325" fill="none" id="analyze-to-ok" style="stroke:#181818;stroke-width:1;"/><polygon fill="#181818" points="66.57,384.97,74.4524,379.0651,69.0093,380.6054,67.469,375.1623,66.57,384.97" style="stroke:#181818;stroke-width:1;"/><text fill="#000000" font-family="sans-serif" font-size="13" lengthAdjust="spacing" textLength="60.4932" x="92.82" y="351.3169">no issues</text></g><!--link analyze to blocked--><g class="link" data-entity-1="ent0005" data-entity-2="ent0007" data-link-type="dependency" data-source-line="16" id="lnk11"><path d="M142.6,283.92 C157.2,310.03 181.5828,353.6625 196.1528,379.7325" fill="none" id="analyze-to-blocked" style="stroke:#181818;stroke-width:1;"/><polygon fill="#181818" points="199.08,384.97,198.181,375.1623,196.6407,380.6054,191.1976,379.0651,199.08,384.97" style="stroke:#181818;stroke-width:1;"/><text fill="#000000" font-family="sans-serif" font-size="13" lengthAdjust="spacing" textLength="81.561" x="182.82" y="351.3169">issues found</text></g><?plantuml-src RP71JiCm38RlUGfhlHLDGaDeQ0UaQbmG1v362tY9qqPDdIb9cGRYtKdJTYg2dEpVN-m_SMWDdz1Z1w51vSw6Qz1e0ubmhNZNivBECtbuMEX7b6sTYtjddOTpOo89uKb6vDeIhCgoDX6awpeJot856AO42hgbhTPB6BriwXwzCiWPpGaK-bxVQGrV0c11lw4F1CgaoWrKX_TyuvJ5GkVpcwyOxUMJCePZV0M_bpRsey7Nbuow5WebjQJjFypHEjcIok0Kfvv46ze8CJrqdJwLru-ZDJ4QdBN9XvZzp7eQkWDsO4BeAVmfpwDs4m1ws84Gx2A1DtKJmUbhSu03oTwRU4bXzGoX8sj3YlUEFuYZSJnaJ_t96ecHXgHAgqYxbB7t98WL3Ar_0000?></g></svg>